<svg xmlns="http://www.w3.org/2000/svg" viewBox="0 0 1600 900" role="img" aria-label="Editorial design system cover">
  <defs>
    <linearGradient id="bg2" x1="0" y1="0" x2="1" y2="1">
      <stop offset="0" stop-color="#111827"/>
      <stop offset="1" stop-color="#374151"/>
    </linearGradient>
    <linearGradient id="line" x1="0" y1="0" x2="1" y2="0">
      <stop offset="0" stop-color="#fbbf24"/>
      <stop offset="1" stop-color="#f59e0b"/>
    </linearGradient>
  </defs>
  <rect width="1600" height="900" fill="url(#bg2)"/>
  <g opacity=".18" stroke="#fff" stroke-width="2">
    <path d="M120 120h1360M120 220h1360M120 320h1360M120 420h1360M120 520h1360M120 620h1360" />
  </g>
  <rect x="180" y="170" width="1240" height="560" rx="40" fill="#ffffff" fill-opacity=".05" stroke="#ffffff" stroke-opacity=".08"/>
  <rect x="240" y="230" width="480" height="34" rx="17" fill="url(#line)"/>
  <rect x="240" y="290" width="740" height="20" rx="10" fill="#f8fafc" fill-opacity=".82"/>
  <rect x="240" y="330" width="620" height="20" rx="10" fill="#f8fafc" fill-opacity=".58"/>
  <rect x="240" y="410" width="320" height="240" rx="28" fill="#ffffff" fill-opacity=".05"/>
  <rect x="590" y="410" width="320" height="240" rx="28" fill="#ffffff" fill-opacity=".05"/>
  <rect x="940" y="410" width="320" height="240" rx="28" fill="#ffffff" fill-opacity=".05"/>
  <text x="240" y="730" fill="#f8fafc" font-family="Arial, Helvetica, sans-serif" font-size="56" font-weight="700">Editorial Design System</text>
</svg>
